<svg xmlns="http://www.w3.org/2000/svg" width="20" height="20" fill="none">
  <path d="M20 .79V0H1.52c-.2 0-.32.06-.38.26L.08 3.41c-.05.15-.07.32-.07.48L0 17.29v.3h4.75c.22 0 .28.06.27.26V20h2.71a.8.8 0 0 0 .62-.25l1.96-1.91a.85.85 0 0 1 .65-.26H14a.8.8 0 0 0 .6-.24l5.15-5a.76.76 0 0 0 .25-.58V.79ZM17.9 11.8l-2.64 2.54a.78.78 0 0 1-.59.24h-4.35c-.22 0-.4.06-.55.22l-2.02 1.96-.28.26-.01-.28v-1.91c0-.19-.05-.25-.25-.25H3.08V1.8h15.09v9.41c0 .25-.07.43-.26.6Z" fill="#F3F3F3"/>
  <path d="M8.32 5.5c-.15-.01-.19.06-.19.26v5.2l.01.25h1.42v-5.7L8.32 5.5ZM14.46 5.5h-1.07c-.17-.01-.22.06-.22.28v5.17l.02.26h1.4l.01-.15V5.68c0-.14-.04-.18-.14-.18Z" fill="#F3F3F3"/>
</svg>
