<svg xmlns="http://www.w3.org/2000/svg" width="81" height="111" fill="none">
  <g clip-path="url(#a)">
    <path d="M25 105.07c-6.63-1.9-13.27-3.81-19.92-5.69a3.9 3.9 0 0 1-2.44-1.88c-.7-1.22-1.4-2.43-2.04-3.66A4.88 4.88 0 0 1 .24 90c.98-3.28 1.93-6.57 2.9-9.86.08-.26.12-.51 0-.8C.97 74.57.5 69.58 1.2 64.44c.63-4.74 2.07-9.27 3.66-13.74.29-.82.27-1.65.33-2.47.15-2.1.4-4.19.9-6.24.73-3.12 2.7-5.02 5.74-5.84 2.87-.77 5.75-.62 8.6.17.43.12.66.07.92-.3a7.1 7.1 0 0 1 4.94-2.85c2.56-.39 5.12-.38 7.64.28.4.1.65.04.94-.25a18.7 18.7 0 0 1 1.67-1.48c1.85-1.44 4.02-1.88 6.29-1.97 2.14-.1 4.24.18 6.29.8.48.14.68.04.82-.44 1.7-5.51 3.55-10.97 5.55-16.39.93-2.53 1.9-5.05 2.88-7.56A8.96 8.96 0 0 1 64.4.62c4.45-1.31 8.54-.58 12.1 2.52.51.44.94.96 1.28 1.55.74 1.29 1.48 2.58 2.2 3.88a8.59 8.59 0 0 1 .86 5.8c-.52 2.88-1.1 5.77-1.73 8.64-2.68 12.44-6.06 24.7-9.32 37a2.5 2.5 0 0 0 .08 1.52 83.76 83.76 0 0 1 2.8 11.26 8.65 8.65 0 0 1-.48 4.18 36.36 36.36 0 0 1-4.17 8.61 59.22 59.22 0 0 1-8.26 10.65 32.47 32.47 0 0 1-6.93 5.32c-.32.18-.42.43-.5.75-.45 1.86-.9 3.73-1.6 5.51-1.09 2.7-3.15 3.73-5.95 2.92l-19.77-5.66H25Zm26.67-69.15-.18-.02a4.78 4.78 0 0 0-2.16-1.77 16.05 16.05 0 0 0-8.47-.79 4.78 4.78 0 0 0-3.79 3.12c-.23.62-.42 1.26-.63 1.88-.12.02-.2-.04-.26-.1a6.14 6.14 0 0 0-2.67-1.45 16.24 16.24 0 0 0-6.53-.33 4.41 4.41 0 0 0-3.78 2.97c-.29.73-.45 1.49-.7 2.2h-.09l-.14-.16a4.27 4.27 0 0 0-2.4-1.82c-2.39-.75-4.82-.89-7.26-.25a4.28 4.28 0 0 0-3.29 3.42 36.12 36.12 0 0 0-.79 5.52c-.08 1.2-.12 2.38-.54 3.56-1.53 4.32-2.93 8.68-3.51 13.25-.6 4.8-.07 9.43 2.17 13.78.15.31.15.58.06.9L3.47 90.87c-.32 1.1-.1 1.5.99 1.8l39.3 11.26.44.12c.5.1.9-.06 1.14-.5.15-.25.24-.54.34-.82.68-2.06 1.2-4.18 1.76-6.28.12-.44.31-.7.73-.9a21.49 21.49 0 0 0 4.1-2.57 44.29 44.29 0 0 0 9.55-10.62 45.69 45.69 0 0 0 4.83-9.17c.62-1.65 1.02-3.3.33-5.04-.06-.17-.08-.36-.11-.55a63.93 63.93 0 0 0-2.68-10.01c-.1-.25-.05-.47.01-.71l1.33-5.07c2.3-8.66 4.68-17.28 6.72-26a321.34 321.34 0 0 0 3.3-15.73 4.78 4.78 0 0 0-1.96-5.01 8.82 8.82 0 0 0-7.33-1.48c-2.12.43-3.84 1.49-4.68 3.57a292.7 292.7 0 0 0-3.4 8.91 377.41 377.41 0 0 0-5.72 17.1c-.28.92-.53 1.84-.79 2.77v-.02Z" fill="#BF2CF9"/>
    <path d="M51.67 35.92c.26-.91.51-1.84.8-2.76 1.8-5.73 3.64-11.45 5.71-17.1 1.1-2.98 2.21-5.97 3.4-8.91.84-2.08 2.57-3.14 4.68-3.57a8.85 8.85 0 0 1 7.33 1.48 4.79 4.79 0 0 1 1.96 5 322.59 322.59 0 0 1-3.3 15.74c-2.04 8.71-4.43 17.34-6.72 26l-1.33 5.07c-.06.23-.1.46 0 .7a63.93 63.93 0 0 1 2.67 10.02c.03.18.05.38.11.55.69 1.74.3 3.4-.33 5.04a45.97 45.97 0 0 1-4.83 9.17c-2.67 4-5.73 7.65-9.55 10.62-1.28 1-2.63 1.9-4.1 2.57-.42.2-.61.46-.73.9-.57 2.1-1.08 4.21-1.76 6.28-.1.28-.2.57-.34.82-.25.44-.65.6-1.14.5l-.43-.12L4.46 92.67c-1.1-.31-1.3-.72-1-1.81l3.25-11.04c.09-.32.1-.59-.06-.9-2.24-4.36-2.78-8.98-2.17-13.78.58-4.57 1.98-8.94 3.51-13.25.42-1.18.46-2.36.54-3.56.13-1.86.38-3.7.79-5.52a4.27 4.27 0 0 1 3.3-3.42c2.43-.64 4.86-.5 7.26.25 1 .31 1.82.92 2.4 1.82.03.06.09.11.13.16h.1c.24-.71.4-1.47.7-2.2a4.41 4.41 0 0 1 3.77-2.98c2.2-.26 4.38-.26 6.53.34 1 .29 1.92.7 2.67 1.44.07.07.14.13.26.11.2-.62.4-1.26.63-1.89a4.78 4.78 0 0 1 3.8-3.1c2.89-.58 5.7-.17 8.46.78a4.81 4.81 0 0 1 2.16 1.77l.18.02v.01ZM8.17 58.47c-1.15 3.8-1.96 7.64-1.73 11.64.26 4.36 1.88 8.2 4.51 11.63.57.74.56 1.31-.03 1.74-.58.43-1.12.29-1.68-.46L8.4 81.9l-.12.22c-.8 2.75-1.61 5.5-2.44 8.25-.12.42.07.5.4.6l36.95 10.58c.47.14.6 0 .71-.42.57-2.06 1.18-4.12 1.76-6.18.13-.44.35-.77.78-.95 2.06-.87 3.9-2.1 5.57-3.57a47.61 47.61 0 0 0 12.54-17.69c.41-.98.83-1.99.56-3.13-.4-1.72-.73-3.46-1.13-5.18-.77-3.32-1.73-6.59-3.4-9.6a7.46 7.46 0 0 0-1.8-2.25 45.18 45.18 0 0 0-6.5-4.3 30.87 30.87 0 0 0-8.01-3.2c-.4-.1-.56.02-.72.37-.3.62-.58 1.25-.81 1.9-1.19 3.31-.88 6.43 1.24 9.31a23.2 23.2 0 0 0 5.18 4.87c.61.45 1.26.86 1.87 1.32.37.28.65.67.48 1.17a7.07 7.07 0 0 0-.15 2.93c.1 1.07.28 2.14.24 3.22-.07 1.3-.45 1.63-1.72 1.41a19.6 19.6 0 0 0-12.17 1.78c-2.08 1.01-4.07 2.16-6.08 3.3-.67.38-1.24.24-1.57-.37-.31-.56-.13-1.13.5-1.49 1.4-.79 2.79-1.58 4.2-2.34 2.91-1.58 5.94-2.85 9.28-3.2 1.63-.18 3.27-.14 4.9.03.22.02.48.1.43-.29-.17-1.5-.31-3.01-.18-4.64-2.06 1.8-4.45 1.75-6.85 1.56-2.4-.2-4.75-.52-6.41-2.55a.54.54 0 0 0-.08.08l-.14.36a4.7 4.7 0 0 1-3.63 3.05c-.9.2-1.8.26-2.72.22-1.84-.08-3.69-.2-5.39-1.03a5.9 5.9 0 0 1-1.86-1.55c-.77 1.84-2.24 2.61-4.03 2.9-1.84.29-3.68.2-5.49-.2-2.26-.52-3.7-1.83-3.95-4.25l-.09-.6c-.2-1.29-.24-2.58-.37-3.89v.01Zm54.52-4.3.28-.98c.66-2.52 1.31-5.04 2-7.56 1.84-6.84 3.65-13.7 5.27-20.6 1.19-5.04 2.26-10.1 3.18-15.19.25-1.35-.19-2.45-1.33-3.2-2-1.3-4.17-1.5-6.4-.66a3.7 3.7 0 0 0-2.22 2.22 331.93 331.93 0 0 0-4.69 12.61c-2.02 5.8-3.83 11.67-5.72 17.51-.26.8-.6 1.6-.61 2.43a51.46 51.46 0 0 1-.2 4.68c-.03.28.06.45.3.58 1.37.69 2.71 1.43 3.94 2.34 2.25 1.66 4.83 3 6.2 5.83v-.01Zm-28.8 8.17c.46-1.81.7-3.66.79-5.52.15-3.36.35-6.72.68-10.07.17-1.7.28-3.4.07-5.12a2.96 2.96 0 0 0-2.38-2.74 15.1 15.1 0 0 0-5.81-.29c-1.13.14-1.81.81-2.15 1.86a23.07 23.07 0 0 0-.82 3.64c-.53 3.57-.7 7.18-.96 10.77-.16 2.23-.27 4.45.07 6.67.3 1.97.97 2.66 2.92 3.08 1.8.38 3.62.38 5.45.12.56-.07 1-.36 1.4-.75.47-.45.59-1.06.75-1.65ZM11.32 43.72l-.13.45c-.5 2.4-.53 4.84-.62 7.27-.08 1.99-.13 3.97-.16 5.96a25 25 0 0 0 .39 5.5c.24 1.18.93 1.9 2.1 2.19 1.8.43 3.6.5 5.41.07a2.36 2.36 0 0 0 1.86-1.78c.44-1.52.55-3.08.6-4.64.09-3.42.17-6.84.32-10.26.08-1.72.07-3.46-.36-5.16-.2-.83-.7-1.37-1.5-1.65-1.76-.6-3.54-.64-5.35-.38-1.48.21-2.36 1.02-2.56 2.42Zm29.1 3.81c.39-1.37.98-2.65 1.66-3.9.5-.9.81-1.06 1.8-.83 1.97.44 3.89 1.04 5.75 1.81.28.12.53.25.56-.23.13-1.82.27-3.64.03-5.46-.25-1.92-.93-2.71-2.82-3.2-1.93-.51-3.9-.5-5.87-.3a2.8 2.8 0 0 0-2.45 1.83 15.9 15.9 0 0 0-1 4.16c-.55 4.04-.67 8.11-1.05 12.17-.2 2.22-.24 4.45.05 6.67.23 1.71 1.13 2.73 2.79 3.14 1.94.47 3.9.52 5.87.3.45-.05.88-.13 1.28-.36.38-.21.47-.37.05-.68a23.9 23.9 0 0 1-3.87-3.53c-2.94-3.38-4.1-7.18-2.77-11.58Z" fill="#FCFCFC"/>
    <path d="M8.17 58.47c.13 1.3.18 2.6.37 3.89l.1.6c.24 2.42 1.68 3.73 3.94 4.24 1.82.41 3.65.5 5.5.21 1.78-.28 3.25-1.05 4.02-2.9.56.65 1.13 1.2 1.86 1.55 1.7.83 3.55.95 5.39 1.03.91.04 1.82-.02 2.72-.22a4.7 4.7 0 0 0 3.63-3.05l.14-.36.08-.08c1.66 2.03 4.01 2.36 6.41 2.55 2.4.19 4.79.25 6.85-1.56-.13 1.63 0 3.14.18 4.64.05.39-.2.3-.43.29-1.63-.17-3.26-.2-4.9-.03-3.35.36-6.37 1.63-9.29 3.2-1.4.76-2.8 1.56-4.19 2.34-.63.36-.81.93-.5 1.5.33.6.9.74 1.57.37 2-1.15 4-2.3 6.08-3.31 3.87-1.9 7.92-2.5 12.17-1.78 1.27.22 1.65-.1 1.71-1.4.06-1.09-.14-2.16-.23-3.23a7.07 7.07 0 0 1 .15-2.93c.17-.5-.11-.89-.48-1.17-.6-.46-1.25-.86-1.87-1.32a22.98 22.98 0 0 1-5.18-4.87c-2.12-2.88-2.43-6-1.24-9.31.23-.65.52-1.28.8-1.9.17-.34.33-.46.73-.37a30.8 30.8 0 0 1 8 3.2 45.18 45.18 0 0 1 6.52 4.3c.77.63 1.32 1.4 1.8 2.26 1.66 3 2.62 6.27 3.4 9.6.4 1.71.71 3.45 1.12 5.17.27 1.14-.15 2.15-.56 3.13A47.63 47.63 0 0 1 52 90.44 20.37 20.37 0 0 1 46.43 94c-.44.18-.65.5-.78.95-.58 2.06-1.19 4.11-1.76 6.18-.11.42-.24.56-.71.42L6.23 90.98c-.33-.1-.53-.18-.4-.6.83-2.75 1.63-5.5 2.44-8.25l.12-.22.84 1.13c.56.74 1.1.88 1.68.45.59-.43.6-1 .03-1.74a20.86 20.86 0 0 1-4.5-11.63c-.24-4 .57-7.84 1.72-11.64h.01ZM62.69 54.17c-1.36-2.84-3.94-4.17-6.2-5.83A27.88 27.88 0 0 0 52.56 46c-.25-.13-.34-.3-.3-.58.14-1.56.18-3.12.2-4.68 0-.83.35-1.63.6-2.43 1.89-5.84 3.7-11.7 5.73-17.5 1.47-4.24 3.04-8.45 4.69-12.62a3.7 3.7 0 0 1 2.21-2.23 6.86 6.86 0 0 1 6.4.68c1.14.74 1.58 1.85 1.33 3.19-.92 5.09-2 10.15-3.17 15.19a649.3 649.3 0 0 1-5.28 20.6c-.68 2.52-1.33 5.04-2 7.56l-.28.98Z" fill="#BF2CF9"/>
    <path d="M33.89 62.34c-.16.59-.28 1.2-.75 1.65-.4.38-.84.67-1.4.75-1.82.25-3.64.25-5.44-.13-1.96-.41-2.62-1.1-2.92-3.07a29.57 29.57 0 0 1-.07-6.67c.25-3.6.42-7.2.95-10.78.19-1.23.45-2.45.83-3.64.33-1.04 1.02-1.71 2.14-1.85a15.1 15.1 0 0 1 5.82.29 2.96 2.96 0 0 1 2.38 2.74c.2 1.7.1 3.41-.07 5.11-.34 3.36-.53 6.71-.69 10.07-.08 1.86-.32 3.71-.78 5.52ZM11.3 43.72c.2-1.41 1.1-2.21 2.57-2.43 1.8-.26 3.59-.22 5.34.39.8.28 1.29.82 1.5 1.65.43 1.7.44 3.43.36 5.16-.14 3.42-.23 6.84-.32 10.25a18.45 18.45 0 0 1-.6 4.64 2.36 2.36 0 0 1-1.85 1.79 11.4 11.4 0 0 1-5.42-.08 2.63 2.63 0 0 1-2.1-2.19 25.03 25.03 0 0 1-.39-5.5c.03-1.98.08-3.97.16-5.96.1-2.43.11-4.87.62-7.26l.14-.46ZM40.41 47.53c-1.32 4.4-.17 8.2 2.78 11.59a24.13 24.13 0 0 0 3.87 3.52c.42.31.33.47-.05.69-.4.22-.84.3-1.28.35-1.98.22-3.94.18-5.88-.3-1.66-.4-2.56-1.42-2.78-3.13-.3-2.23-.26-4.46-.05-6.68.37-4.05.5-8.13 1.04-12.17.19-1.42.44-2.83 1-4.16a2.78 2.78 0 0 1 2.45-1.83c1.98-.2 3.95-.2 5.88.3 1.89.5 2.57 1.28 2.82 3.2.23 1.83.1 3.64-.03 5.46-.03.49-.28.36-.56.24a35.74 35.74 0 0 0-5.75-1.82c-1-.22-1.3-.06-1.8.84a18.24 18.24 0 0 0-1.66 3.9Z" fill="#BF2CF9"/>
  </g>
  <defs>
    <clipPath id="a">
      <path fill="#fff" d="M0 0h81v111H0z"/>
    </clipPath>
  </defs>
</svg>
