<svg xmlns="http://www.w3.org/2000/svg" width="16" height="20" fill="none">
  <path d="M16 4v4.16a7.86 7.86 0 0 1-3.63-1.42l-.01.32c0 2.23.04 4.47-.03 6.7-.07 2.71-1.36 4.7-3.81 5.72-2.43 1.02-4.66.5-6.63-1.3A6.42 6.42 0 0 1 3.32 8.02c1.1-.62 2.3-.74 3.54-.62.06.01.17.1.17.15v3.33c-.31-.03-.6-.09-.9-.08-1.1.02-1.93.55-2.43 1.54-.51 1-.48 2.03.18 2.95.7.97 1.85 1.48 3.14 1.07a2.8 2.8 0 0 0 1.93-2.69V.4c0-.26.13-.4.4-.4h1.84c.2 0 .28.07.32.26A4.83 4.83 0 0 0 13.24 3c.76.63 1.63.91 2.58.98l.18.01Z" fill="#F3F3F3"/>
</svg>
