<svg xmlns="http://www.w3.org/2000/svg" width="50" height="50" fill="none">
  <g clip-path="url(#a)" fill="#06EFF3">
    <path d="M25.26 35.74c4.51 0 8.95-3.78 9.7-8.35.12-.72.12-1.45.1-2.16 0-1.05.61-1.87 1.66-2.06.95-.17 1.84.28 2.05 1.3.21.95.28 1.98.16 2.93-.49 4.11-2.65 7.24-5.92 9.66a12.29 12.29 0 0 1-8.1 2.58 4.54 4.54 0 0 1-1.16-.19 1.93 1.93 0 0 1-1.34-2.1 2.02 2.02 0 0 1 1.93-1.66l.89.03.03.02ZM31.93 13.42a3.47 3.47 0 0 1 3.41 3.43c0 1.8-1.57 3.34-3.38 3.38a3.43 3.43 0 0 1-3.43-3.45c0-1.79 1.57-3.34 3.4-3.34v-.02ZM19.97 16.84a3.45 3.45 0 0 1-3.41 3.37 3.45 3.45 0 0 1-3.4-3.4 3.46 3.46 0 0 1 3.43-3.4 3.45 3.45 0 0 1 3.38 3.4v.03Z"/>
    <path d="M25 0C11.21 0 0 11.21 0 25s11.21 25 25 25 25-11.21 25-25S38.79 0 25 0Zm0 46.62A21.64 21.64 0 0 1 3.38 25c0-11.93 9.7-21.62 21.62-21.62 11.93 0 21.62 9.7 21.62 21.62 0 11.93-9.7 21.62-21.62 21.62Z"/>
  </g>
  <defs>
    <clipPath id="a">
      <path fill="#fff" d="M0 0h50v50H0z"/>
    </clipPath>
  </defs>
</svg>
