<svg xmlns="http://www.w3.org/2000/svg" width="111" height="64" fill="none">
  <g clip-path="url(#a)">
    <path d="M.47 42.25h69.52v20.44H.47V42.25Z" fill="#BF2CF9"/>
    <path d="M69.99 63.16H.47a.47.47 0 0 1-.47-.47V42.25c0-.26.21-.47.47-.47h69.52c.26 0 .47.21.47.47v20.44c0 .26-.21.47-.47.47ZM.94 62.22h68.58v-19.5H.94v19.5Z" fill="#EDE9FF"/>
    <path d="M6.89 21.81h69.52v20.44H6.89V21.81Z" fill="#BF2CF9"/>
    <path d="M76.41 42.72H6.89a.47.47 0 0 1-.47-.47V21.81c0-.26.21-.47.47-.47h69.52c.26 0 .47.21.47.47v20.44c0 .26-.21.47-.47.47Zm-69.05-.94h68.58v-19.5H7.36v19.5Z" fill="#EDE9FF"/>
    <path d="M59.67 63.16a.47.47 0 0 1-.47-.47V42.25a.47.47 0 1 1 .94 0v20.44c0 .26-.21.47-.47.47Zm-24.24 0a.47.47 0 0 1-.47-.47V42.25a.47.47 0 1 1 .94 0v20.44c0 .26-.21.47-.47.47Zm-24.8-.05a.47.47 0 0 1-.47-.47V42.25a.47.47 0 1 1 .94 0v20.39c0 .26-.21.47-.47.47Zm18.11-20.39a.47.47 0 0 1-.47-.47V21.81a.47.47 0 1 1 .94 0v20.44c0 .26-.21.47-.47.47Zm25.47 0a.47.47 0 0 1-.47-.47V21.81a.47.47 0 1 1 .94 0v20.44c0 .26-.21.47-.47.47Z" fill="#EDE9FF"/>
    <path d="m44.36 16.09 9.49-12.01 17.2 13.5a69.45 69.45 0 0 1 10.82 7.02c3.57 2.8 6.72 5.8 9.38 8.84l17.28 13.57-9.49 12.01c-5.62 7.15-22.41 3.34-37.51-8.51-15.1-11.86-22.79-27.27-17.17-34.42Z" fill="#BF2CF9"/>
    <path d="M108.53 47.01c5.62-7.15-2.07-22.56-17.17-34.42C76.26.74 59.47-3.08 53.86 4.08c-5.62 7.15 2.06 22.56 17.16 34.42 15.1 11.85 31.9 15.67 37.51 8.51Z" fill="#BF2CF9"/>
    <path d="M99.4 51.11c-1.87 0-3.94-.25-6.16-.75-7.15-1.62-15.14-5.7-22.5-11.47-7.36-5.78-13.21-12.57-16.49-19.13-3.33-6.67-3.6-12.34-.77-15.95C55 1.88 57.28.67 60.28.22c.26-.04.5.13.54.39.04.26-.13.5-.39.54-2.75.42-4.83 1.51-6.2 3.25-5.45 6.94 2.22 22.08 17.09 33.76C81.18 45.9 91.77 50.2 99.37 50.2c3.87 0 6.96-1.11 8.8-3.45.16-.2.46-.24.66-.08.2.16.24.46.08.66-1.97 2.51-5.25 3.79-9.51 3.79v-.01Z" fill="#EDE9FF"/>
    <path d="M98.27 46.83c-1.74 0-3.69-.27-5.82-.81-6.09-1.55-12.95-5.16-19.33-10.17-6.38-5.01-11.52-10.82-14.47-16.37-3.01-5.67-3.4-10.41-1.08-13.37 2.32-2.95 7.02-3.71 13.24-2.12 6.09 1.55 12.95 5.16 19.33 10.17 6.38 5.01 11.52 10.82 14.47 16.37 3.01 5.67 3.4 10.41 1.08 13.37-1.52 1.94-4.08 2.93-7.42 2.93ZM64.97 4.12c-3.03 0-5.33.87-6.67 2.58-2.07 2.64-1.66 7.03 1.17 12.34 2.89 5.43 7.94 11.14 14.22 16.07s13.02 8.48 18.98 10c5.83 1.49 10.19.85 12.26-1.79 2.07-2.64 1.66-7.03-1.17-12.34-2.89-5.43-7.94-11.14-14.22-16.07s-13.02-8.48-18.98-10a22.74 22.74 0 0 0-5.6-.79h.01Zm23.05 58.83a.47.47 0 0 1-.47-.47c0-.1.03-.21.1-.29l9.07-11.84a.47.47 0 0 1 .66-.09c.21.16.25.45.09.66L88.4 62.76a.46.46 0 0 1-.37.18l-.01.01Zm-18.25-6.36a.47.47 0 0 1-.37-.76l9.13-11.94a.47.47 0 0 1 .66-.09c.21.16.25.45.09.66L70.15 56.4a.46.46 0 0 1-.37.18l-.01.01ZM53.73 43.88a.47.47 0 0 1-.37-.76l9.11-11.91c.16-.2.46-.24.66-.08.2.16.24.45.09.65l-9.11 11.91a.46.46 0 0 1-.37.18l-.01.01ZM43.07 26.49a.47.47 0 0 1-.47-.47c0-.1.03-.2.1-.28l9.39-12.43a.47.47 0 0 1 .66-.09c.21.16.25.45.09.66l-9.39 12.43a.47.47 0 0 1-.38.19v-.01Z" fill="#EDE9FF"/>
    <path d="M89.9 63.11c-1.87 0-3.94-.25-6.16-.75-7.15-1.62-15.14-5.7-22.5-11.47-7.36-5.78-13.21-12.57-16.49-19.13-3.33-6.67-3.6-12.34-.77-15.95L53.47 3.8C56.3.19 61.87-.89 69.14.76c7.15 1.62 15.14 5.7 22.5 11.47 7.36 5.78 13.21 12.57 16.49 19.13 3.33 6.67 3.6 12.34.77 15.95l-9.5 12.01c-1.97 2.51-5.25 3.79-9.51 3.79h.01ZM63.02.92c-3.87 0-6.96 1.11-8.8 3.45l-9.5 12.01c-2.6 3.31-2.29 8.62.87 14.95 3.21 6.44 8.97 13.12 16.22 18.81 7.25 5.69 15.11 9.7 22.12 11.3 6.9 1.56 12.13.61 14.72-2.7l9.49-12.01c5.45-6.94-2.22-22.08-17.09-33.76C81.22 5.23 70.63.92 63.02.92Z" fill="#EDE9FF"/>
  </g>
  <defs>
    <clipPath id="a">
      <path fill="#fff" d="M0 0h110.85v63.16H0z"/>
    </clipPath>
  </defs>
</svg>
