<svg xmlns="http://www.w3.org/2000/svg" width="140" height="70" fill="none">
  <g clip-path="url(#a)">
    <path d="M137.42 0H29.71L4 70h20.6l9.9-27.4h6.07L30.62 70H112l25.42-70Zm-34.68 26.6h-6.36l3.8-10.59h6.4l-3.84 10.58Zm-12.2 16h6.4L92.8 54h-6.38l4.11-11.4Zm-50.2-16L44.14 16h6.08l-3.84 10.58h-6.04ZM69.1 43.2a38.7 38.7 0 0 0 4.72-3.8l-6.17 17 1.45-13.2Z" fill="#fff"/>
    <path d="M29.14 10.2h77.44V70H21.93" fill="#fff"/>
    <path d="M31.52 2.77h21.7l-3.85 10.47h-9.65l-5.8 16.12h8.05l-3.86 10.48h-8.04l-9.9 27.4H8.13l23.4-64.47ZM66.98 2.77c9 0 15.27 8.38 9.89 23.13-2.5 6.85-6.52 11.6-12.87 15.7L61.2 67.24H49.37l4.1-23.77h-1.2l-8.13 23.77H32.08l23.4-64.46h11.5ZM55.96 34.6h.72c2.9 0 5.23-1.3 6.51-4.68l3.86-10.4c1.93-5.15-.08-7.08-2.57-7.08H64L55.96 34.6ZM109.27 2.77l-3.86 10.47h-9.65l-5.79 16.12h8.45l-3.86 10.48h-8.44L80 56.76h9.65l-3.78 10.48h-21.7L87.55 2.77h21.71ZM133.55 2.77l-3.86 10.47h-9.64l-5.8 16.12h8.45l-3.86 10.48h-8.44l-6.11 16.92h9.64l-3.78 10.48h-21.7l23.4-64.47h21.7Z" fill="#CB10FD"/>
  </g>
  <defs>
    <clipPath id="a">
      <path fill="#fff" d="M0 0h140v70H0z"/>
    </clipPath>
  </defs>
</svg>
