<svg xmlns="http://www.w3.org/2000/svg" width="28" height="20" fill="none">
  <path d="m14.01 20-7.6-.1c-.73-.01-1.47-.06-2.2-.13a4.63 4.63 0 0 1-2.23-.8 3.85 3.85 0 0 1-1.56-2.53c-.19-.94-.25-1.9-.32-2.86-.13-1.83-.1-3.67-.08-5.5C.04 7 .14 5.92.23 4.84c.05-.54.13-1.08.26-1.6A3.7 3.7 0 0 1 2.32.78c.6-.33 1.24-.54 1.9-.6A38 38 0 0 1 7.26.06C10.98.02 14.71.01 18.44 0a92.99 92.99 0 0 1 5.33.2c.95.1 1.83.41 2.58 1.06.3.25.54.57.74.91.38.64.55 1.35.63 2.08.1.93.19 1.87.22 2.8.05 1.49.08 2.98.05 4.47-.02 1.25-.12 2.5-.21 3.75a6.6 6.6 0 0 1-.49 2.17c-.22.5-.53.94-.95 1.29-.74.6-1.59.94-2.51 1.04-.79.09-1.58.12-2.36.13L14 20Zm-2.52-10v3.9c0 .25.05.46.26.59.2.12.4.06.59-.05l1.5-.9 2.6-1.55L19 10.44c.19-.11.32-.26.3-.51-.02-.2-.15-.32-.3-.4a539.14 539.14 0 0 0-6.77-4.01.61.61 0 0 0-.22-.09c-.3-.04-.53.2-.53.58v3.98Z" fill="#F3F3F3"/>
</svg>
