<svg xmlns="http://www.w3.org/2000/svg" width="20" height="20" fill="none">
  <path d="M19.84 4.22A5.45 5.45 0 0 0 15.5.1c-.2-.05-.41-.07-.62-.1H5.13c-.3.05-.6.08-.9.16A5.42 5.42 0 0 0 .01 5.62v8.75c0 1.95.8 3.5 2.39 4.64.93.67 2 .98 3.15.98 2.97 0 5.94.03 8.9-.01a5.39 5.39 0 0 0 5.1-3.34c.24-.5.36-1.03.42-1.58l.03-.19V5.11c-.05-.3-.08-.6-.16-.9Zm-1.61 10.14a3.74 3.74 0 0 1-3.9 3.85H5.66a3.77 3.77 0 0 1-3.88-3.83V5.6c0-1.71.96-3.08 2.54-3.62.42-.14.87-.2 1.3-.2 2.92-.02 5.84-.01 8.75 0a3.7 3.7 0 0 1 3.65 2.55c.14.41.2.87.2 1.3.02 2.91.01 5.82 0 8.72Z" fill="#F3F3F3"/>
  <path d="M10 4.84a5.17 5.17 0 0 0-5.15 5.14 5.17 5.17 0 0 0 5.14 5.17A5.17 5.17 0 0 0 15.15 10 5.17 5.17 0 0 0 10 4.84Zm0 8.53a3.38 3.38 0 1 1 0-6.76 3.38 3.38 0 0 1 0 6.76ZM15.37 3.35c-.7 0-1.29.57-1.3 1.28-.01.7.59 1.3 1.3 1.3.7 0 1.3-.57 1.3-1.28a1.3 1.3 0 0 0-1.3-1.3Z" fill="#F3F3F3"/>
</svg>
