<svg xmlns="http://www.w3.org/2000/svg" width="24" height="20" viewBox="0 0 24 20" fill="none">
  <path d="M24.001 2.65052C23.6032 3.60101 22.7954 4.13897 22.053 4.72831C21.8419 4.89604 21.7979 5.05925 21.7994 5.31009C21.8025 11.1611 18.5533 16.6798 13.0312 18.9162C9.78803 20.2294 6.4857 20.3639 3.17274 19.2396C2.09473 18.8739 0.989399 18.4916 0.000976562 17.6907C1.32647 17.659 2.58819 17.8131 3.77247 17.4111C4.77456 17.0696 5.84649 16.8203 6.61779 15.9998C6.69826 15.9136 6.76203 15.8124 6.83339 15.7172C6.70585 15.6582 6.58287 15.5751 6.44774 15.5449C4.72294 15.1686 3.59331 14.0927 2.86604 12.5423C2.80834 12.4184 2.7795 12.2794 2.73698 12.1479C2.88881 12.1434 3.03913 12.1343 3.19096 12.1373C3.48855 12.1434 3.9319 12.3126 4.03666 12.0285C4.15661 11.7006 3.67682 11.6341 3.44451 11.4785C1.98389 10.5083 1.05468 9.22691 0.983322 7.42113C0.969657 7.08717 1.05772 7.04637 1.34924 7.18388C1.82295 7.40601 2.28755 7.6901 2.85237 7.55864C2.57755 7.22468 2.28908 6.89979 2.03248 6.55374C0.807202 4.90209 0.702437 3.13408 1.49955 1.2754C1.62405 0.983754 1.74703 1.06384 1.90342 1.23913C3.85445 3.42421 6.19114 5.01693 9.05013 5.76947C9.85787 5.98254 10.696 6.07925 11.5219 6.21827C11.8742 6.27721 11.9061 6.04601 11.8727 5.78307C11.6222 3.82164 12.2386 2.17149 13.851 1.02455C15.7565 -0.329409 17.8548 -0.355098 19.6829 1.02909C21.0327 2.05061 21.8526 0.906687 22.9047 0.710242C23.1522 0.663397 23.4847 0.417084 23.6077 0.503218C23.8871 0.698153 23.4817 0.852287 23.4195 1.04571C23.1841 1.77256 22.5783 2.23798 22.0682 2.76688C22.0074 2.83034 21.9679 2.91648 21.9194 2.99203C22.0211 3.0147 22.1289 3.07363 22.2215 3.05399C22.8091 2.93159 23.3921 2.79105 24.001 2.65203V2.65052Z" fill="#F3F3F3"/>
</svg>
