<svg xmlns="http://www.w3.org/2000/svg" width="16" height="16" fill="none">
  <g clip-path="url(#a)" fill="#BF2CF9">
    <path d="m10.82 11.55-2.4-2.4a.46.46 0 0 0-.63 0l-2.41 2.4c-.44.45-1.04.7-1.66.7h-.47l3.04 3.04c.95.95 2.48.95 3.44 0l3.04-3.05h-.3c-.62 0-1.22-.25-1.65-.7v.01ZM5.38 4.44l2.4 2.4c.18.18.46.18.64 0l2.4-2.4c.43-.44 1.03-.69 1.66-.68h.29L9.72.7a2.43 2.43 0 0 0-3.44 0L3.25 3.75h.47c.62 0 1.22.25 1.66.7Z"/>
    <path d="m15.3 6.28-1.85-1.84a.38.38 0 0 1-.13.03h-.84c-.43 0-.85.17-1.16.48l-2.4 2.4c-.46.44-1.18.44-1.63 0L4.88 4.93c-.31-.31-.73-.48-1.17-.48H2.7a.34.34 0 0 1-.13-.03L.71 6.28a2.43 2.43 0 0 0 0 3.44l1.85 1.85a.36.36 0 0 1 .12-.03h1.03c.44 0 .86-.17 1.17-.48l2.4-2.4c.44-.44 1.2-.44 1.64 0l2.4 2.4c.3.3.73.47 1.16.47h.84c.04 0 .09.01.13.03l1.84-1.84c.95-.95.95-2.49 0-3.44Z"/>
  </g>
  <defs>
    <clipPath id="a">
      <path fill="#fff" d="M0 0h16v16H0z"/>
    </clipPath>
  </defs>
</svg>
