<svg xmlns="http://www.w3.org/2000/svg" width="26" height="20" fill="none">
  <path d="M26 13.24v2.3c-.04.02-.04.04-.05.07-.07.3-.03.6-.08.9-.01.1-.03.17-.11.23a23.14 23.14 0 0 1-6.31 3.23c-.12.04-.2.01-.27-.1l-.37-.55c-.3-.45-.58-.93-.83-1.42-.07-.13-.08-.21.1-.28.61-.24 1.21-.53 1.78-.87.2-.13.2-.12.02-.27-.06-.05-.14-.09-.18-.15-.1-.14-.22-.1-.35-.04l-.51.24c-.87.34-1.76.64-2.68.84-.73.15-1.48.28-2.22.3a15.24 15.24 0 0 1-6.92-1.23c-.43-.2-.76-.22-1.08.15v.04c.58.36 1.19.68 1.83.94.1.04.27.06.3.14.05.09-.1.2-.15.3-.05.09-.08.2-.14.3-.24.42-.49.84-.77 1.24-.11.16-.2.34-.37.45l-.08-.01c-1.31-.44-2.6-.96-3.81-1.63-.77-.42-1.52-.9-2.24-1.4-.18-.13-.41-.22-.42-.5 0-.2-.03-.4-.04-.59-.02-.53-.02-1.07-.02-1.6 0-.25-.05-.5-.01-.75.05-.34 0-.68.06-1.03.07-.44.07-.9.14-1.34a21.2 21.2 0 0 1 1.73-5.83 23.94 23.94 0 0 1 1.67-3.1c.17-.27.3-.57.64-.7.46-.15.9-.35 1.35-.54.38-.15.77-.28 1.16-.4.28-.1.58-.2.9-.24.24-.04.5-.15.74-.2.27-.06.56-.1.85-.14.1-.01.13.06.17.13l.56 1.15c.03.06.03.12.13.11l1.15-.12c.62-.05 1.24-.07 1.86-.08.6-.01 1.19.07 1.79.1.26 0 .51.07.77.06.09 0 .18.13.27 0 .06-.08.13-.15.16-.26.05-.29.21-.54.36-.8.09-.15.19-.31.48-.23.37.1.76.18 1.15.24.34.06.67.17 1 .25.15.04.3.13.46.17.66.19 1.3.44 1.92.71.2.09.45.12.6.33l.4.62a22.69 22.69 0 0 1 3.43 10.4c0 .16.02.31.08.46Zm-6.39-2.3c.05-.5-.09-1.02-.37-1.45-.37-.56-.85-1.03-1.58-1.08-.29-.03-.57-.1-.85 0-.2.08-.4.14-.59.25-.87.53-1.22 1.36-1.25 2.33-.03.54.15 1.06.44 1.51.35.54.8.93 1.42 1.07a2.1 2.1 0 0 0 2.1-.68c.5-.53.7-1.18.68-1.96Zm-8.6.13c-.02-.25-.01-.41-.04-.58A2.45 2.45 0 0 0 9.9 8.76c-1.03-.71-2.3-.46-3.02.58-.43.6-.61 1.28-.5 2.03.12.74.44 1.36 1.04 1.82.75.58 1.72.58 2.5.03a2.61 2.61 0 0 0 1.1-2.15Z" fill="#F3F3F3"/>
</svg>
