<svg xmlns="http://www.w3.org/2000/svg" width="75" height="50" fill="none">
  <g clip-path="url(#a)" fill="#06EFF3">
    <path d="M12.52 16.93v16.62a1.71 1.71 0 0 0 2.76 1.35l12.5-9.66-12.5-9.65a1.71 1.71 0 0 0-2.76 1.35v-.01Z"/>
    <path d="M57.96 0H16.5C7.4 0 0 7.4 0 16.5v17C0 42.6 7.4 50 16.5 50h41.46c9.1 0 16.5-7.4 16.5-16.5v-17c0-9.1-7.4-16.5-16.5-16.5ZM71.2 33.5c0 7.3-5.94 13.24-13.24 13.24H16.5c-7.3 0-13.24-5.94-13.24-13.24v-17C3.26 9.2 9.2 3.26 16.5 3.26h41.46c7.3 0 13.24 5.94 13.24 13.24v17Z"/>
    <path d="M40.05 24.48h-1.84v-1.84c0-.56-.44-1-1-1-.55 0-.99.44-.99 1v1.84h-1.84c-.56 0-1 .44-1 1 0 .55.44.99 1 .99h1.84v1.84c0 .55.44 1 1 1 .55 0 .99-.45.99-1v-1.84h1.84c.56 0 1-.44 1-1 0-.55-.44-1-1-1ZM55.92 23.94c-2.32-.72-4.62-1.06-4.62-2.56 0-1.22 1.18-2 2.94-2 1.88 0 3.16.87 3.16 2.15v.81h2.84v-.73c0-2.51-1.53-4.27-4.42-4.75v-2.1h-2.75v2.05c-3.09.38-4.64 2.22-4.64 4.65 0 5.82 9.25 3.82 9.25 7.4 0 1.46-1.39 2.29-3.21 2.29-2.06 0-3.56-.98-3.56-2.43v-.77h-2.83v.6c0 2.71 1.84 4.72 4.99 5.11v2.09h2.75v-2.09c3.04-.46 4.75-2.38 4.75-4.94 0-.93-.23-1.73-.7-2.4-.93-1.34-2.35-1.83-3.95-2.36v-.02Z"/>
  </g>
  <defs>
    <clipPath id="a">
      <path fill="#fff" d="M0 0h74.46v50H0z"/>
    </clipPath>
  </defs>
</svg>
