<svg xmlns="http://www.w3.org/2000/svg" width="16" height="16" fill="none">
  <g clip-path="url(#a)" fill="#BF2CF9">
    <path d="M8 0C3.6 0 0 3.6 0 8s3.6 8 8 8 8-3.6 8-8a8 8 0 0 0-8-8Zm0 14.56A6.56 6.56 0 1 1 8 1.44 6.56 6.56 0 0 1 8 14.55v.01Z"/>
    <path d="M8.38 7.6c-.65-.2-1.32-.3-1.32-.73 0-.34.34-.57.84-.57.53 0 .9.25.9.61v.23h.81v-.2c0-.72-.43-1.22-1.25-1.35v-.6h-.79v.58c-.87.11-1.32.63-1.32 1.33C6.25 8.56 8.9 7.98 8.9 9c0 .42-.4.66-.91.66-.59 0-1.02-.28-1.02-.7v-.21h-.8v.17c0 .77.52 1.34 1.42 1.46v.59h.78v-.6c.87-.13 1.35-.68 1.35-1.4 0-.27-.07-.5-.2-.69-.26-.38-.66-.52-1.12-.67Z"/>
  </g>
  <defs>
    <clipPath id="a">
      <path fill="#fff" d="M0 0h16v16H0z"/>
    </clipPath>
  </defs>
</svg>
