<svg xmlns="http://www.w3.org/2000/svg" width="50" height="50" fill="none">
  <g clip-path="url(#a)" fill="#06EFF3">
    <path d="M24.99 0A25.03 25.03 0 0 0 0 24.99a25.03 25.03 0 0 0 24.99 24.99 25.03 25.03 0 0 0 24.99-24.99A25.02 25.02 0 0 0 24.99 0Zm0 45.5a20.51 20.51 0 0 1 0-41c11.3 0 20.5 9.19 20.5 20.49 0 11.3-9.2 20.5-20.5 20.5v.01Z"/>
    <path d="M26.2 23.77c-2.06-.63-4.13-.95-4.13-2.3 0-1.08 1.05-1.79 2.62-1.79 1.66 0 2.82.8 2.82 1.92v.73h2.53v-.65c0-2.25-1.36-3.81-3.93-4.22v-1.88h-2.44v1.84c-2.74.33-4.12 1.97-4.12 4.14 0 5.19 8.24 3.4 8.24 6.59 0 1.3-1.24 2.03-2.86 2.03-1.83 0-3.17-.87-3.17-2.17v-.67h-2.53v.53c0 2.4 1.64 4.2 4.46 4.56v1.85h2.44v-1.85c2.7-.42 4.23-2.13 4.23-4.4 0-.83-.22-1.54-.62-2.15-.82-1.2-2.09-1.62-3.5-2.1l-.05-.01Z"/>
  </g>
  <defs>
    <clipPath id="a">
      <path fill="#fff" d="M0 0h50v50H0z"/>
    </clipPath>
  </defs>
</svg>
